<?xml version="1.0" standalone="no"?><!DOCTYPE svg PUBLIC "-//W3C//DTD SVG 1.1//EN" "http://www.w3.org/Graphics/SVG/1.1/DTD/svg11.dtd"><svg t="1739511826626" class="icon" viewBox="0 0 1194 1024" version="1.1" xmlns="http://www.w3.org/2000/svg" p-id="4449" xmlns:xlink="http://www.w3.org/1999/xlink" width="37.3125" height="32"><path d="M982.664533 436.155733a387.584 387.584 0 0 1-316.330666 340.48v126.839467h78.267733a60.228267 60.228267 0 0 1 60.228267 60.228267A60.228267 60.228267 0 0 1 744.6016 1024H477.576533a60.228267 60.228267 0 0 1-60.228266-60.228267 60.228267 60.228267 0 0 1 60.228266-60.228266h78.267734v-122.88a387.242667 387.242667 0 0 1-344.746667-359.406934C140.5952 414.190933 85.333333 349.7472 85.333333 271.2064c0-80.298667 57.787733-145.732267 130.577067-150.186667A164.7104 164.7104 0 0 1 374.613333 0h445.44a164.7104 164.7104 0 0 1 162.133334 136.0896c71.168 6.2976 127.146667 70.997333 127.146666 150.050133s-55.722667 143.4624-126.6688 150.016z m-772.829866-238.933333a73.9328 73.9328 0 0 0-55.5008 73.693867 73.9328 73.9328 0 0 0 55.5008 73.693866v-147.370666z m692.002133-4.7104a102.4 102.4 0 0 0-102.4-102.4H395.229867a102.4 102.4 0 0 0-102.4 102.4v195.7888a304.503467 304.503467 0 0 0 609.006933 0V192.529067z m82.9952 19.643733V360.106667a74.154667 74.154667 0 0 0 55.5008-73.949867 74.154667 74.154667 0 0 0-55.5008-73.984z" fill="#ffffff" p-id="4450"></path></svg>